<?xml version="1.0" encoding="UTF-8" standalone="no"?>
<!DOCTYPE svg PUBLIC "-//W3C//DTD SVG 1.1//EN"
 "http://www.w3.org/Graphics/SVG/1.1/DTD/svg11.dtd">
<!-- Generated by graphviz version 2.43.20190912.0211 (20190912.0211)
 -->
<!-- Title: lifecycle Pages: 1 -->
<svg width="210pt" height="307pt"
 viewBox="0.00 0.00 210.00 307.00" xmlns="http://www.w3.org/2000/svg" xmlns:xlink="http://www.w3.org/1999/xlink">
<g id="graph0" class="graph" transform="scale(1 1) rotate(0) translate(4 303)">
<title>lifecycle</title>
<!-- Initialization -->
<g id="node1" class="node">
<title>Initialization</title>
<polygon fill="none" stroke="white" points="189,-299 13,-299 13,-210 189,-210 189,-299"/>
<text text-anchor="start" x="24" y="-281.3" font-family="Open Sans" font-weight="bold" font-size="14.00" fill="white">Initialization</text>
<text text-anchor="start" x="24" y="-260.3" font-family="Open Sans" font-size="14.00" fill="white">evaluate settings.gradle</text>
<text text-anchor="start" x="24" y="-240.3" font-family="Open Sans" font-size="14.00" fill="white">scan projects</text>
<text text-anchor="start" x="24" y="-220.3" font-family="Open Sans" font-size="14.00" fill="white">create Project instance</text>
</g>
<!-- Configuration -->
<g id="node2" class="node">
<title>Configuration</title>
<polygon fill="none" stroke="white" points="202,-174 0,-174 0,-85 202,-85 202,-174"/>
<text text-anchor="start" x="11" y="-156.3" font-family="Open Sans" font-weight="bold" font-size="14.00" fill="white">Configuration</text>
<text text-anchor="start" x="11" y="-135.3" font-family="Open Sans" font-size="14.00" fill="white">evaluate build.gradle</text>
<text text-anchor="start" x="11" y="-115.3" font-family="Open Sans" font-size="14.00" fill="white">calculate dependencies</text>
<text text-anchor="start" x="11" y="-95.3" font-family="Open Sans" font-size="14.00" fill="white">create task execution graph</text>
</g>
<!-- Initialization&#45;&gt;Configuration -->
<g id="edge1" class="edge">
<title>Initialization&#45;&gt;Configuration</title>
<path fill="none" stroke="white" d="M101,-209.79C101,-201.54 101,-192.83 101,-184.31"/>
<polygon fill="white" stroke="white" points="104.5,-184.07 101,-174.07 97.5,-184.07 104.5,-184.07"/>
</g>
<!-- Execution -->
<g id="node3" class="node">
<title>Execution</title>
<polygon fill="none" stroke="white" points="186.5,-49 15.5,-49 15.5,0 186.5,0 186.5,-49"/>
<text text-anchor="start" x="27" y="-31.3" font-family="Open Sans" font-weight="bold" font-size="14.00" fill="white">Execution</text>
<text text-anchor="start" x="27" y="-10.3" font-family="Open Sans" font-size="14.00" fill="white">execute specified tasks</text>
</g>
<!-- Configuration&#45;&gt;Execution -->
<g id="edge2" class="edge">
<title>Configuration&#45;&gt;Execution</title>
<path fill="none" stroke="white" d="M101,-84.82C101,-76.28 101,-67.45 101,-59.29"/>
<polygon fill="white" stroke="white" points="104.5,-59.03 101,-49.03 97.5,-59.03 104.5,-59.03"/>
</g>
</g>
</svg>
